Coordinates
version=1
nRows=8
nColumns=42
inDegrees=yes

Units are S.I. units (second, meters, Newtons, ...)
If the header above contains a line with 'inDegrees', this indicates whether rotational values are in degrees (yes) or radians (no).

endheader
time	pelvis_tilt	pelvis_list	pelvis_rotation	pelvis_tx	pelvis_ty	pelvis_tz	hip_flexion_r	hip_adduction_r	hip_rotation_r	knee_angle_r	knee_adduction_r	knee_angle_r_beta	ankle_angle_r	subtalar_angle_r	mtp_angle_r	hip_flexion_l	hip_adduction_l	hip_rotation_l	knee_angle_l	knee_adduction_l	knee_angle_l_beta	ankle_angle_l	subtalar_angle_l	mtp_angle_l	lumbar_extension	lumbar_bending	lumbar_rotation	arm_flex_r	arm_add_r	arm_rot_r	elbow_flex_r	pro_sup_r	wrist_flex_r	wrist_dev_r	arm_flex_l	arm_add_l	arm_rot_l	elbow_flex_l	pro_sup_l	wrist_flex_l	wrist_dev_l
      2.43000000	      9.90408253	      3.33649200	     -2.90217092	      1.65592319	      0.85849061	     -0.17517877	     17.16916913	     -5.80469010	     -5.74631377	     16.68686078	     -2.05590416	      0.29124066	     14.66160422	     11.64798711	     -7.50015630	    -29.36921206	      5.74678523	    -22.33226125	      6.86717849	      3.16290138	      0.11985487	     20.77364960	     24.54581722	     -7.50015630	    -22.37922681	     -5.43269934	     -5.39956643	     -4.21967440	     -1.38982656	    -31.71565124	     30.21468011	     90.00000001	      0.00000000	      0.00000000	      2.87035753	     -6.27964295	     -7.32304714	     47.76430085	     90.00000001	      0.00000000	      0.00000000
      2.44000000	      9.57883898	      3.42743904	     -2.81130026	      1.66855822	      0.85651922	     -0.17380737	     17.79350251	     -5.63639591	     -5.37784389	     16.97026033	     -2.15423684	      0.29618692	     14.59587440	     11.61172263	     -7.50015492	    -29.45533186	      5.64022138	    -21.95228872	      7.73201233	      2.76673070	      0.13494907	     20.66571212	     24.44555166	     -7.50015492	    -21.86182347	     -5.47988014	     -5.46894560	     -4.32048661	     -1.37174117	    -31.68485792	     30.12498353	     90.00000001	      0.00000000	      0.00000000	      2.93388703	     -6.20562157	     -7.29333620	     47.65444444	     90.00000001	      0.00000000	      0.00000000
      2.45000000	      9.31573310	      3.44069720	     -2.82729443	      1.68149762	      0.85464511	     -0.17212102	     18.41914511	     -5.35728788	     -5.19433254	     17.93175085	     -2.26153839	      0.31296809	     14.67535698	     11.03880770	     -7.50015205	    -29.49287213	      5.41870378	    -22.01674817	      8.94113294	      2.39141789	      0.15605221	     20.58012834	     24.21984979	     -7.50015205	    -21.35986344	     -5.51179300	     -5.39799280	     -4.36311773	     -1.37304948	    -31.69716491	     29.80749773	     90.00000001	      0.00000000	      0.00000000	      3.05000414	     -6.12307200	     -7.33033709	     47.21177467	     90.00000001	      0.00000000	      0.00000000
      2.46000000	      9.02431207	      3.27365506	     -2.76127159	      1.69476534	      0.85282760	     -0.17045198	     18.95104853	     -4.89473300	     -5.18219163	     19.16530428	     -2.41025099	      0.33449766	     14.59585583	     10.37554825	     -7.50014849	    -29.53524171	      5.00677750	    -22.08557501	     10.07339580	      1.95144204	      0.17581392	     20.36935618	     24.23476623	     -7.50014849	    -20.82213299	     -5.31248912	     -5.36696571	     -4.44257086	     -1.36886091	    -31.80237308	     29.72295320	     90.00000001	      0.00000000	      0.00000000	      3.02350453	     -5.99951908	     -7.44086793	     46.94082376	     90.00000001	      0.00000000	      0.00000000
      2.47000000	      8.75533912	      3.10077247	     -2.69335497	      1.70817574	      0.85120022	     -0.16856949	     19.37367100	     -4.37807964	     -5.20256526	     20.58137282	     -2.67001327	      0.35921272	     14.41807056	      9.83243884	     -7.50014560	    -29.56592710	      4.54181100	    -22.16188942	     11.28423720	      1.55918024	      0.19694709	     19.93256071	     24.18856471	     -7.50014560	    -20.31670358	     -5.12652666	     -5.33416608	     -4.52233683	     -1.34345729	    -31.84773037	     29.68294067	     90.00000001	      0.00000000	      0.00000000	      2.96082485	     -5.91619635	     -7.55268738	     46.66672592	     90.00000001	      0.00000000	      0.00000000
      2.48000000	      8.50016383	      2.81800029	     -2.61733283	      1.72181959	      0.84975326	     -0.16669663	     19.72066871	     -3.76357198	     -5.35417808	     22.17600429	     -2.98309955	      0.38704429	     14.08460928	      9.42511724	     -7.50014280	    -29.59423529	      3.99398903	    -22.33772837	     12.50597942	      1.09451686	      0.21827052	     19.31662018	     24.13806113	     -7.50014280	    -19.81413929	     -4.81665020	     -5.28984724	     -4.60482766	     -1.31536720	    -31.86481648	     29.71236327	     90.00000001	      0.00000000	      0.00000000	      2.81073910	     -5.79649268	     -7.69089759	     46.39719031	     90.00000001	      0.00000000	      0.00000000
      2.49000000	      8.27928857	      2.43722890	     -2.53922427	      1.73553437	      0.84854703	     -0.16472365	     19.97764925	     -3.03817642	     -5.60506664	     23.85588126	     -3.38409729	      0.41636367	     13.62677546	      9.25558921	     -7.50013985	    -29.60898194	      3.35433470	    -22.61699325	     13.77005218	      0.58243211	      0.24033275	     18.48490732	     24.07297831	     -7.50013985	    -19.37772220	     -4.40604064	     -5.25524576	     -4.67256875	     -1.33754141	    -31.84190210	     29.80178153	     90.00000001	      0.00000000	      0.00000000	      2.63230492	     -5.70234479	     -7.87719348	     46.13203534	     90.00000001	      0.00000000	      0.00000000
      2.50000000	      8.16698260	      1.75153862	     -2.37328653	      1.74950068	      0.84770069	     -0.16259854	     20.04685265	     -1.99961975	     -6.38064147	     25.53326399	     -4.05912463	      0.44563953	     13.17733330	     10.01152551	     -7.50013128	    -29.61884753	      2.29104241	    -23.39571848	     15.32703759	      0.00971785	      0.26750727	     17.66251096	     24.66538501	     -7.50013128	    -19.06736811	     -3.66179437	     -5.24249319	     -4.75559057	     -1.36663831	    -31.61459689	     29.98363710	     90.00000001	      0.00000000	      0.00000000	      2.39884549	     -5.53953994	     -8.24850127	     45.85783750	     90.00000001	      0.00000000	      0.00000000
